<svg width="24" height="24" viewBox="0 0 24 24" fill="none" xmlns="http://www.w3.org/2000/svg">
    <path d="M10.5 20H4C3.46957 20 2.96086 19.7893 2.58579 19.4142C2.21071 19.0391 2 18.5304 2 18V5C2 3.9 2.9 3 4 3H7.93C8.25941 3.0017 8.58331 3.08475 8.8729 3.24176C9.1625 3.39877 9.40882 3.62488 9.59 3.9L10.41 5.1C10.5912 5.37512 10.8375 5.60123 11.1271 5.75824C11.4167 5.91525 11.7406 5.9983 12.07 6H20C20.5304 6 21.0391 6.21071 21.4142 6.58579C21.7893 6.96086 22 7.46957 22 8V11" stroke="currentColor" stroke-width="1.5" stroke-linecap="round" stroke-linejoin="round"/>
    <path d="M22 22V21C22 20.4696 21.7592 19.9609 21.3305 19.5858C20.9019 19.2107 20.3205 19 19.7143 19H16.2857C15.6795 19 15.0981 19.2107 14.6695 19.5858C14.2408 19.9609 14 20.4696 14 21V22" stroke="currentColor" stroke-width="1.5" stroke-linecap="round" stroke-linejoin="round"/>
    <path d="M18 15.75C18.9665 15.75 19.75 14.9665 19.75 14C19.75 13.0335 18.9665 12.25 18 12.25C17.0335 12.25 16.25 13.0335 16.25 14C16.25 14.9665 17.0335 15.75 18 15.75Z" stroke="currentColor" stroke-width="1.5" stroke-linecap="round" stroke-linejoin="round"/>
</svg>
