<svg width="24" height="24" viewBox="0 0 24 24" fill="none" xmlns="http://www.w3.org/2000/svg">
<path d="M10.5 20H4C3.46957 20 2.96086 19.7893 2.58579 19.4142C2.21071 19.0391 2 18.5304 2 18V5C2 3.9 2.9 3 4 3H7.93C8.25941 3.0017 8.58331 3.08475 8.8729 3.24176C9.1625 3.39877 9.40882 3.62488 9.59 3.9L10.41 5.1C10.5912 5.37512 10.8375 5.60123 11.1271 5.75824C11.4167 5.91525 11.7406 5.9983 12.07 6H20C20.5304 6 21.0391 6.21071 21.4142 6.58579C21.7893 6.96086 22 7.46957 22 8V11" stroke="currentColor" stroke-width="1.5" stroke-linecap="round" stroke-linejoin="round"/>
<path d="M22 14V17H19" stroke="currentColor" stroke-width="1.5" stroke-linecap="round" stroke-linejoin="round"/>
<path d="M14 17C14.0006 16.4206 14.1966 15.8537 14.5644 15.3677C14.9321 14.8817 15.4559 14.4974 16.0726 14.2611C16.6892 14.0248 17.3724 13.9466 18.0397 14.0359C18.707 14.1253 19.3299 14.3783 19.8333 14.7646L21 15.6655" stroke="currentColor" stroke-width="1.5" stroke-linecap="round" stroke-linejoin="round"/>
<path d="M14 23V20H17" stroke="currentColor" stroke-width="1.5" stroke-linecap="round" stroke-linejoin="round"/>
<path d="M22 20C21.9994 20.5794 21.8034 21.1463 21.4356 21.6323C21.0679 22.1183 20.5441 22.5026 19.9274 22.7389C19.3108 22.9752 18.6276 23.0534 17.9603 22.9641C17.293 22.8747 16.6701 22.6217 16.1667 22.2354L15 21.3345" stroke="currentColor" stroke-width="1.5" stroke-linecap="round" stroke-linejoin="round"/>
</svg>
