<svg width="20" height="20" viewBox="0 0 20 20" fill="none" xmlns="http://www.w3.org/2000/svg">
    <path d="M11.6665 7.49999H10.8332V6.66666C10.8332 6.44564 10.7454 6.23368 10.5891 6.0774C10.4328 5.92112 10.2209 5.83332 9.99984 5.83332C9.77882 5.83332 9.56686 5.92112 9.41058 6.0774C9.2543 6.23368 9.1665 6.44564 9.1665 6.66666V7.49999H8.33317C8.11216 7.49999 7.9002 7.58779 7.74392 7.74407C7.58764 7.90035 7.49984 8.11231 7.49984 8.33332C7.49984 8.55434 7.58764 8.7663 7.74392 8.92258C7.9002 9.07886 8.11216 9.16666 8.33317 9.16666H9.1665V9.99999C9.1665 10.221 9.2543 10.433 9.41058 10.5892C9.56686 10.7455 9.77882 10.8333 9.99984 10.8333C10.2209 10.8333 10.4328 10.7455 10.5891 10.5892C10.7454 10.433 10.8332 10.221 10.8332 9.99999V9.16666H11.6665C11.8875 9.16666 12.0995 9.07886 12.2558 8.92258C12.412 8.7663 12.4998 8.55434 12.4998 8.33332C12.4998 8.11231 12.412 7.90035 12.2558 7.74407C12.0995 7.58779 11.8875 7.49999 11.6665 7.49999ZM15.8332 1.66666H4.1665C3.50346 1.66666 2.86758 1.93005 2.39874 2.39889C1.9299 2.86773 1.6665 3.50362 1.6665 4.16666V12.5C1.6665 13.163 1.9299 13.7989 2.39874 14.2678C2.86758 14.7366 3.50346 15 4.1665 15H13.8248L16.9082 18.0917C16.986 18.1689 17.0784 18.23 17.1799 18.2715C17.2814 18.3129 17.3902 18.334 17.4998 18.3333C17.6092 18.3361 17.7176 18.3133 17.8165 18.2667C17.9687 18.2041 18.099 18.098 18.1909 17.9615C18.2828 17.8251 18.3323 17.6645 18.3332 17.5V4.16666C18.3332 3.50362 18.0698 2.86773 17.6009 2.39889C17.1321 1.93005 16.4962 1.66666 15.8332 1.66666ZM16.6665 15.4917L14.7582 13.575C14.6803 13.4978 14.588 13.4367 14.4864 13.3952C14.3849 13.3537 14.2762 13.3327 14.1665 13.3333H4.1665C3.94549 13.3333 3.73353 13.2455 3.57725 13.0892C3.42097 12.933 3.33317 12.721 3.33317 12.5V4.16666C3.33317 3.94564 3.42097 3.73368 3.57725 3.5774C3.73353 3.42112 3.94549 3.33332 4.1665 3.33332H15.8332C16.0542 3.33332 16.2661 3.42112 16.4224 3.5774C16.5787 3.73368 16.6665 3.94564 16.6665 4.16666V15.4917Z"
          fill="currentColor"/>
</svg>
