<svg width="16" height="17" viewBox="0 0 16 17" fill="none" xmlns="http://www.w3.org/2000/svg">
<path d="M10.6666 14.5V13.1667C10.6666 12.4594 10.3856 11.7811 9.88554 11.281C9.38544 10.781 8.70716 10.5 7.99992 10.5H3.99992C3.29267 10.5 2.6144 10.781 2.1143 11.281C1.6142 11.7811 1.33325 12.4594 1.33325 13.1667V14.5" stroke="currentColor" stroke-width="1.5" stroke-linecap="round" stroke-linejoin="round"/>
<path d="M5.99992 7.83333C7.47268 7.83333 8.66659 6.63943 8.66659 5.16667C8.66659 3.69391 7.47268 2.5 5.99992 2.5C4.52716 2.5 3.33325 3.69391 3.33325 5.16667C3.33325 6.63943 4.52716 7.83333 5.99992 7.83333Z" stroke="currentColor" stroke-width="1.5" stroke-linecap="round" stroke-linejoin="round"/>
<path d="M14.6667 14.5V13.1667C14.6663 12.5758 14.4697 12.0019 14.1077 11.5349C13.7457 11.0679 13.2388 10.7344 12.6667 10.5867" stroke="currentColor" stroke-width="1.5" stroke-linecap="round" stroke-linejoin="round"/>
<path d="M10.6667 2.58667C11.2404 2.73354 11.7488 3.06714 12.1118 3.53488C12.4749 4.00262 12.672 4.57789 12.672 5.17C12.672 5.76212 12.4749 6.33739 12.1118 6.80513C11.7488 7.27287 11.2404 7.60647 10.6667 7.75334" stroke="currentColor" stroke-width="1.5" stroke-linecap="round" stroke-linejoin="round"/>
</svg>
