<svg width="16" height="16" viewBox="0 0 16 16" fill="none" xmlns="http://www.w3.org/2000/svg">
<path d="M14.2934 7.36667L8.1667 13.4933C7.41613 14.2439 6.39815 14.6656 5.3367 14.6656C4.27524 14.6656 3.25726 14.2439 2.5067 13.4933C1.75613 12.7428 1.33447 11.7248 1.33447 10.6633C1.33447 9.60189 1.75613 8.5839 2.5067 7.83334L8.22003 2.12001C8.72041 1.61875 9.39941 1.33679 10.1077 1.33617C10.8159 1.33554 11.4954 1.6163 11.9967 2.11667C12.498 2.61705 12.7799 3.29605 12.7805 4.00432C12.7812 4.71258 12.5004 5.39208 12 5.89334L6.27336 11.6067C6.02318 11.8569 5.68385 11.9974 5.33003 11.9974C4.97621 11.9974 4.63688 11.8569 4.3867 11.6067C4.13651 11.3565 3.99596 11.0172 3.99596 10.6633C3.99596 10.3095 4.13651 9.9702 4.3867 9.72001L10.0467 4.06667" stroke="currentColor" stroke-width="1.5" stroke-linecap="round" stroke-linejoin="round"/>
</svg>
