<svg width="16" height="17" viewBox="0 0 16 17" fill="none" xmlns="http://www.w3.org/2000/svg">
    <path d="M9.79314 4.91996H5.12647L7.07314 2.97329C7.13563 2.91132 7.18522 2.83758 7.21907 2.75634C7.25291 2.6751 7.27034 2.58797 7.27034 2.49996C7.27034 2.41195 7.25291 2.32481 7.21907 2.24357C7.18522 2.16233 7.13563 2.0886 7.07314 2.02663C6.94823 1.90246 6.77926 1.83276 6.60314 1.83276C6.42702 1.83276 6.25805 1.90246 6.13314 2.02663L3.07314 5.11329C3.01005 5.1761 2.96018 5.2509 2.92647 5.33329C2.8598 5.4956 2.8598 5.67765 2.92647 5.83996C2.96271 5.92098 3.01229 5.99535 3.07314 6.05996L6.15981 9.16663C6.28289 9.29223 6.45063 9.36412 6.62647 9.36663C6.75889 9.3674 6.88854 9.32871 6.99888 9.25551C7.10923 9.18231 7.19528 9.07791 7.24605 8.95561C7.29683 8.83332 7.31004 8.69867 7.28399 8.56884C7.25795 8.43901 7.19383 8.31987 7.09981 8.22663L5.15314 6.25329H9.81981C10.3502 6.25329 10.8589 6.46401 11.234 6.83908C11.6091 7.21415 11.8198 7.72286 11.8198 8.25329V14.5C11.8198 14.6768 11.89 14.8463 12.0151 14.9714C12.1401 15.0964 12.3097 15.1666 12.4865 15.1666C12.6633 15.1666 12.8329 15.0964 12.9579 14.9714C13.0829 14.8463 13.1531 14.6768 13.1531 14.5V8.25329C13.1532 7.8133 13.0661 7.37766 12.8969 6.97149C12.7277 6.56532 12.4798 6.19667 12.1674 5.88679C11.8551 5.57691 11.4844 5.33194 11.0769 5.166C10.6694 5.00006 10.2331 4.91644 9.79314 4.91996Z" fill="currentColor"/>
</svg>
