<svg width="24" height="24" viewBox="0 0 24 24" fill="none" xmlns="http://www.w3.org/2000/svg">
    <path d="M15.71 13.21C15.801 13.1149 15.8724 13.0028 15.92 12.88C16.02 12.6365 16.02 12.3635 15.92 12.12C15.8724 11.9973 15.801 11.8851 15.71 11.79L12.71 8.79C12.5217 8.6017 12.2663 8.49591 12 8.49591C11.7337 8.49591 11.4783 8.6017 11.29 8.79C11.1017 8.97831 10.9959 9.2337 10.9959 9.5C10.9959 9.76631 11.1017 10.0217 11.29 10.21L12.59 11.5H9C8.73479 11.5 8.48043 11.6054 8.2929 11.7929C8.10536 11.9804 8 12.2348 8 12.5C8 12.7652 8.10536 13.0196 8.2929 13.2071C8.48043 13.3946 8.73479 13.5 9 13.5H12.59L11.29 14.79C11.1963 14.883 11.1219 14.9936 11.0711 15.1154C11.0203 15.2373 10.9942 15.368 10.9942 15.5C10.9942 15.632 11.0203 15.7627 11.0711 15.8846C11.1219 16.0064 11.1963 16.117 11.29 16.21C11.383 16.3037 11.4936 16.3781 11.6154 16.4289C11.7373 16.4797 11.868 16.5058 12 16.5058C12.132 16.5058 12.2627 16.4797 12.3846 16.4289C12.5064 16.3781 12.617 16.3037 12.71 16.21L15.71 13.21ZM22 12.5C22 10.5222 21.4135 8.58879 20.3147 6.9443C19.2159 5.29981 17.6541 4.01809 15.8268 3.26121C13.9996 2.50433 11.9889 2.3063 10.0491 2.69215C8.10929 3.078 6.32746 4.03041 4.92894 5.42894C3.53041 6.82746 2.578 8.60929 2.19215 10.5491C1.8063 12.4889 2.00433 14.4996 2.76121 16.3268C3.51809 18.1541 4.79981 19.7159 6.4443 20.8147C8.08879 21.9135 10.0222 22.5 12 22.5C14.6522 22.5 17.1957 21.4464 19.0711 19.5711C20.9464 17.6957 22 15.1522 22 12.5ZM4 12.5C4 10.9178 4.4692 9.37104 5.34825 8.05544C6.2273 6.73985 7.47673 5.71447 8.93854 5.10897C10.4003 4.50347 12.0089 4.34504 13.5607 4.65372C15.1126 4.9624 16.538 5.72433 17.6569 6.84315C18.7757 7.96197 19.5376 9.38743 19.8463 10.9393C20.155 12.4911 19.9965 14.0997 19.391 15.5615C18.7855 17.0233 17.7602 18.2727 16.4446 19.1518C15.129 20.0308 13.5823 20.5 12 20.5C9.87827 20.5 7.84344 19.6572 6.34315 18.1569C4.84286 16.6566 4 14.6217 4 12.5Z"
          fill="currentColor"/>
</svg>
