<svg width="15" height="15" viewBox="0 0 15 15" fill="none" xmlns="http://www.w3.org/2000/svg">
    <path d="M1.76672 9.55274L1.76447 9.55456C1.47717 9.78589 1.30837 10.135 1.30837 10.5062C1.30837 10.6699 1.33454 10.8306 1.3832 10.9819L1.85921 10.8289L1.38368 10.9834C1.3929 11.0118 1.37655 11.0412 1.35105 11.0495L1.35031 11.0497C1.3219 11.0589 1.29251 11.0426 1.28427 11.0171L1.28397 11.0162C1.23082 10.8528 1.20312 10.6809 1.20312 10.5062C1.20312 10.1034 1.38594 9.72323 1.69982 9.47175C1.75206 9.42999 1.80688 9.3862 1.86329 9.34114C2.0282 9.20941 2.20668 9.06684 2.37395 8.93259C2.79798 8.59312 3.0452 8.07905 3.0452 7.53531V7.53214V7.52896V7.52578V7.52259V7.51941V7.51621V7.51301V7.50981V7.5066V7.50339V7.50018V7.49696V7.49373V7.4905V7.48727V7.48403V7.48079V7.47754V7.47429V7.47104V7.46778V7.46451V7.46124V7.45797V7.45469V7.45141V7.44813V7.44484V7.44154V7.43824V7.43494V7.43163V7.42832V7.425V7.42168V7.41836V7.41503V7.4117V7.40836V7.40502V7.40167V7.39832V7.39497V7.39161V7.38825V7.38488V7.38151V7.37813V7.37476V7.37137V7.36798V7.36459V7.3612V7.3578V7.35439V7.35098V7.34757V7.34415V7.34073V7.33731V7.33388V7.33045V7.32701V7.32357V7.32012V7.31667V7.31322V7.30976V7.3063V7.30283V7.29937V7.29589V7.29241V7.28893V7.28545V7.28196V7.27846V7.27497V7.27146V7.26796V7.26445V7.26094V7.25742V7.2539V7.25037V7.24684V7.24331V7.23977V7.23623V7.23269V7.22914V7.22558V7.22203V7.21847V7.2149V7.21133V7.20776V7.20419V7.20061V7.19702V7.19344V7.18985V7.18625V7.18265V7.17905V7.17544V7.17183V7.16822V7.1646V7.16098V7.15735V7.15372V7.15009V7.14645V7.14281V7.13917V7.13552V7.13187V7.12822V7.12456V7.1209V7.11723V7.11356V7.10989V7.10621V7.10253V7.09884V7.09515V7.09146V7.08777V7.08407V7.08037V7.07666V7.07295V7.06924V7.06552V7.0618V7.05807V7.05435V7.05061V7.04688V7.04314V7.0394V7.03565V7.0319V7.02815V7.0244V7.02064V7.01687V7.01311V7.00934V7.00556V7.00179V6.998V6.99422V6.99043V6.98664V6.98285V6.97905V6.97525V6.97144V6.96764V6.96382V6.96001V6.95619V6.95237V6.94854V6.94472V6.94088V6.93705V6.93321V6.92937V6.92552V6.92168V6.91782V6.91397V6.91011V6.90625V6.90238V6.89851V6.89464V6.89077V6.88689V6.88301V6.87912V6.87523V6.87134V6.86745V6.86355V6.85965V6.85575V6.85184V6.84793V6.84401V6.8401V6.83618V6.83225V6.82833V6.8244V6.82046V6.81653V6.81259V6.80865V6.8047V6.80075V6.7968V6.79285V6.78889V6.78493V6.78096V6.777V6.77303V6.76905V6.76508V6.7611V6.75711V6.75313V6.74914V6.74515V6.74115V6.73716V6.73316V6.72915V6.72514V6.72114V6.71712V6.71311V6.70909V6.70507V6.70104V6.69701V6.69298V6.68895V6.68491V6.68088V6.67683V6.67279V6.66874V6.66469V6.66064V6.65658V6.65252V6.64846V6.64439V6.64032V6.63625V6.63218V6.6281V6.62402V6.61994V6.61586V6.61177V6.60768V6.60358V6.59949V6.59539V6.59129V6.58718V6.58308V6.57897V6.57485V6.57074V6.56662V6.5625V6.55837V6.55425V6.55012V6.54599V6.54185V6.53771V6.53357V6.52943V6.52529V6.52114V6.51699V6.51283V6.50868V6.50452V6.50036V6.4962V6.49203V6.48786V6.48369V6.47951V6.47534V6.47116V6.46698V6.46279V6.4586V6.45442V6.45022V6.44603V6.44183V6.43763V6.43343V6.42922V6.42502V6.42081V6.4166V6.41238V6.40816V6.40394V6.39972V6.3955V6.39127V6.38704V6.38281V6.37857V6.37434V6.3701V6.36586V6.36161V6.35737V6.35312V6.34887V6.34461V6.34036V6.3361V6.33184V6.32758V6.32331V6.31904V6.31477V6.3105V6.30623V6.30195V6.29767V6.29339V6.2891V6.28482V6.28053V6.27624V6.27195V6.26765V6.26335V6.25905V6.25475V6.25045V6.24614V6.24183V6.23752V6.23321V6.22889V6.22458V6.22026V6.21594V6.21161V6.20729V6.20296V6.19863V6.1943V6.18996V6.18562V6.18129V6.17694V6.1726V6.16826V6.16391V6.15956V6.15521V6.15086V6.1465V6.14214V6.13778V6.13342V6.12906V6.12469V6.12032V6.11595V6.11158V6.10721V6.10283V6.09845V6.09408V6.08969V6.08531V6.08092V6.07654V6.07215V6.06776V6.06336V6.05897V6.05457V6.05017V6.04577V6.04137V6.03696V6.03255V6.02814V6.02373V6.01932V6.01491V6.01049V6.00607V6.00165V5.99723V5.99281V5.98838V5.98396V5.97953V5.9751V5.97066V5.96623V5.96179V5.95735V5.95292V5.94847V5.94403V5.93959V5.93514V5.93069V5.92624V5.92179V5.91733V5.91288V5.90842V5.90396V5.8995V5.89504V5.89058V5.88611V5.88164V5.87718V5.87271V5.86823V5.86376V5.85928V5.85481V5.85033V5.84585V5.84137V5.83688V5.8324V5.82791V5.82342V5.81894V5.81444V5.80995V5.80546V5.80096V5.79646V5.79197V5.78746V5.78296V5.77846V5.77395V5.76945V5.76494V5.76043V5.75592V5.75141V5.74689V5.74238V5.73786V5.73334V5.72882V5.7243V5.71978V5.71526V5.71073V5.70621V5.70168V5.69715V5.69262V5.68809V5.68355V5.67902V5.67448V5.66994V5.66541V5.66087V5.65632V5.65178V5.64724V5.64269V5.63814V5.6336V5.62905V5.6245V5.61995V5.61539V5.61084V5.60628V5.60173V5.59717V5.59261V5.58805V5.58349V5.57892V5.57436V5.56979V5.56523V5.56066V5.55609V5.55152V5.54695V5.54238V5.5378V5.53323V5.52865V5.52408V5.5195V5.51492V5.51034V5.50576V5.50118V5.49659V5.49201V5.48742V5.48283V5.47825V5.47366C3.0452 3.0029 5.04804 1.00006 7.5188 1.00006C8.49355 1.00006 9.39403 1.31131 10.1282 1.83935C10.1524 1.85679 10.1571 1.89008 10.1407 1.91287C10.1233 1.93708 10.09 1.94177 10.0672 1.92536L10.0669 1.92517C9.34955 1.4092 8.4692 1.1053 7.5188 1.1053C5.10665 1.1053 3.15044 3.06065 3.15044 5.47366V5.47825V5.48283V5.48742V5.49201V5.49659V5.50118V5.50576V5.51034V5.51492V5.5195V5.52408V5.52865V5.53323V5.5378V5.54238V5.54695V5.55152V5.55609V5.56066V5.56523V5.56979V5.57436V5.57892V5.58349V5.58805V5.59261V5.59717V5.60173V5.60628V5.61084V5.61539V5.61995V5.6245V5.62905V5.6336V5.63814V5.64269V5.64724V5.65178V5.65632V5.66087V5.66541V5.66994V5.67448V5.67902V5.68355V5.68809V5.69262V5.69715V5.70168V5.70621V5.71073V5.71526V5.71978V5.7243V5.72882V5.73334V5.73786V5.74238V5.74689V5.75141V5.75592V5.76043V5.76494V5.76945V5.77395V5.77846V5.78296V5.78746V5.79197V5.79646V5.80096V5.80546V5.80995V5.81444V5.81894V5.82342V5.82791V5.8324V5.83688V5.84137V5.84585V5.85033V5.85481V5.85928V5.86376V5.86823V5.87271V5.87718V5.88164V5.88611V5.89058V5.89504V5.8995V5.90396V5.90842V5.91288V5.91733V5.92179V5.92624V5.93069V5.93514V5.93959V5.94403V5.94847V5.95292V5.95735V5.96179V5.96623V5.97066V5.9751V5.97953V5.98396V5.98838V5.99281V5.99723V6.00165V6.00607V6.01049V6.01491V6.01932V6.02373V6.02814V6.03255V6.03696V6.04137V6.04577V6.05017V6.05457V6.05897V6.06336V6.06776V6.07215V6.07654V6.08092V6.08531V6.08969V6.09408V6.09845V6.10283V6.10721V6.11158V6.11595V6.12032V6.12469V6.12906V6.13342V6.13778V6.14214V6.1465V6.15086V6.15521V6.15956V6.16391V6.16826V6.1726V6.17694V6.18129V6.18562V6.18996V6.1943V6.19863V6.20296V6.20729V6.21161V6.21594V6.22026V6.22458V6.22889V6.23321V6.23752V6.24183V6.24614V6.25045V6.25475V6.25905V6.26335V6.26765V6.27195V6.27624V6.28053V6.28482V6.2891V6.29339V6.29767V6.30195V6.30623V6.3105V6.31477V6.31904V6.32331V6.32758V6.33184V6.3361V6.34036V6.34461V6.34887V6.35312V6.35737V6.36161V6.36586V6.3701V6.37434V6.37857V6.38281V6.38704V6.39127V6.3955V6.39972V6.40394V6.40816V6.41238V6.4166V6.42081V6.42502V6.42922V6.43343V6.43763V6.44183V6.44603V6.45022V6.45442V6.4586V6.46279V6.46698V6.47116V6.47534V6.47951V6.48369V6.48786V6.49203V6.4962V6.50036V6.50452V6.50868V6.51283V6.51699V6.52114V6.52529V6.52943V6.53357V6.53771V6.54185V6.54599V6.55012V6.55425V6.55837V6.5625V6.56662V6.57074V6.57485V6.57897V6.58308V6.58718V6.59129V6.59539V6.59949V6.60358V6.60768V6.61177V6.61586V6.61994V6.62402V6.6281V6.63218V6.63625V6.64032V6.64439V6.64846V6.65252V6.65658V6.66064V6.66469V6.66874V6.67279V6.67683V6.68088V6.68491V6.68895V6.69298V6.69701V6.70104V6.70507V6.70909V6.71311V6.71712V6.72114V6.72514V6.72915V6.73316V6.73716V6.74115V6.74515V6.74914V6.75313V6.75711V6.7611V6.76508V6.76905V6.77303V6.777V6.78096V6.78493V6.78889V6.79285V6.7968V6.80075V6.8047V6.80865V6.81259V6.81653V6.82046V6.8244V6.82833V6.83225V6.83618V6.8401V6.84401V6.84793V6.85184V6.85575V6.85965V6.86355V6.86745V6.87134V6.87523V6.87912V6.88301V6.88689V6.89077V6.89464V6.89851V6.90238V6.90625V6.91011V6.91397V6.91782V6.92168V6.92552V6.92937V6.93321V6.93705V6.94088V6.94472V6.94854V6.95237V6.95619V6.96001V6.96382V6.96764V6.97144V6.97525V6.97905V6.98285V6.98664V6.99043V6.99422V6.998V7.00179V7.00556V7.00934V7.01311V7.01687V7.02064V7.0244V7.02815V7.0319V7.03565V7.0394V7.04314V7.04688V7.05061V7.05435V7.05807V7.0618V7.06552V7.06924V7.07295V7.07666V7.08037V7.08407V7.08777V7.09146V7.09515V7.09884V7.10253V7.10621V7.10989V7.11356V7.11723V7.1209V7.12456V7.12822V7.13187V7.13552V7.13917V7.14281V7.14645V7.15009V7.15372V7.15735V7.16098V7.1646V7.16822V7.17183V7.17544V7.17905V7.18265V7.18625V7.18985V7.19344V7.19702V7.20061V7.20419V7.20776V7.21133V7.2149V7.21847V7.22203V7.22558V7.22914V7.23269V7.23623V7.23977V7.24331V7.24684V7.25037V7.2539V7.25742V7.26094V7.26445V7.26796V7.27146V7.27497V7.27846V7.28196V7.28545V7.28893V7.29241V7.29589V7.29937V7.30283V7.3063V7.30976V7.31322V7.31667V7.32012V7.32357V7.32701V7.33045V7.33388V7.33731V7.34073V7.34415V7.34757V7.35098V7.35439V7.3578V7.3612V7.36459V7.36798V7.37137V7.37476V7.37813V7.38151V7.38488V7.38825V7.39161V7.39497V7.39832V7.40167V7.40502V7.40836V7.4117V7.41503V7.41836V7.42168V7.425V7.42832V7.43163V7.43494V7.43824V7.44154V7.44484V7.44813V7.45141V7.45469V7.45797V7.46124V7.46451V7.46778V7.47104V7.47429V7.47754V7.48079V7.48403V7.48727V7.4905V7.49373V7.49696V7.50018V7.50339V7.5066V7.50981V7.51301V7.51621V7.51941V7.52259V7.52578V7.52896V7.53214V7.53531C3.15044 8.11148 2.8886 8.65586 2.43941 9.01475L2.43854 9.01545C2.21479 9.19503 1.97152 9.3898 1.76673 9.55275L1.76672 9.55274Z"
          fill="#2400FE" stroke="#2400FE"/>
    <mask id="path-2-inside-1_1235_3970" fill="white">
        <path fill-rule="evenodd" clip-rule="evenodd"
              d="M8.3487 13.1731C8.10481 13.3146 7.82187 13.3949 7.5205 13.3949C7.21914 13.3949 6.9362 13.3146 6.69231 13.1731C6.42852 13.0206 6.08958 13.1104 5.93706 13.3742C5.78453 13.6388 5.87443 13.977 6.13821 14.1295C6.54494 14.3653 7.01725 14.5001 7.5205 14.5001C8.02376 14.5001 8.49606 14.3653 8.90279 14.1295C9.16658 13.977 9.25647 13.6388 9.10395 13.3742C8.95143 13.1104 8.61248 13.0206 8.3487 13.1731Z"/>
    </mask>
    <path fill-rule="evenodd" clip-rule="evenodd"
          d="M8.3487 13.1731C8.10481 13.3146 7.82187 13.3949 7.5205 13.3949C7.21914 13.3949 6.9362 13.3146 6.69231 13.1731C6.42852 13.0206 6.08958 13.1104 5.93706 13.3742C5.78453 13.6388 5.87443 13.977 6.13821 14.1295C6.54494 14.3653 7.01725 14.5001 7.5205 14.5001C8.02376 14.5001 8.49606 14.3653 8.90279 14.1295C9.16658 13.977 9.25647 13.6388 9.10395 13.3742C8.95143 13.1104 8.61248 13.0206 8.3487 13.1731Z"
          fill="#2400FE"/>
    <path d="M6.69231 13.1731L7.19406 12.3081L7.19287 12.3074L6.69231 13.1731ZM5.93706 13.3742L5.07135 12.8737L5.07075 12.8747L5.93706 13.3742ZM6.13821 14.1295L6.63974 13.2643L6.63877 13.2638L6.13821 14.1295ZM8.90279 14.1295L8.40223 13.2638L8.40126 13.2643L8.90279 14.1295ZM9.10395 13.3742L9.97026 12.8747L9.96965 12.8737L9.10395 13.3742ZM7.84694 12.3081C7.7523 12.363 7.642 12.3949 7.5205 12.3949V14.3949C8.00174 14.3949 8.45731 14.2661 8.85046 14.0381L7.84694 12.3081ZM7.5205 12.3949C7.39901 12.3949 7.2887 12.363 7.19406 12.3081L6.19055 14.0381C6.58369 14.2661 7.03927 14.3949 7.5205 14.3949V12.3949ZM7.19287 12.3074C6.45289 11.8795 5.50144 12.1299 5.07135 12.8737L6.80276 13.8748C6.67772 14.091 6.40415 14.1616 6.19175 14.0388L7.19287 12.3074ZM5.07075 12.8747C4.64411 13.6146 4.89353 14.5649 5.63765 14.9952L6.63877 13.2638C6.85533 13.389 6.92495 13.6629 6.80336 13.8737L5.07075 12.8747ZM5.63668 14.9946C6.1917 15.3164 6.83645 15.5001 7.5205 15.5001V13.5001C7.19805 13.5001 6.89818 13.4142 6.63974 13.2643L5.63668 14.9946ZM7.5205 15.5001C8.20456 15.5001 8.8493 15.3164 9.40433 14.9946L8.40126 13.2643C8.14283 13.4142 7.84296 13.5001 7.5205 13.5001V15.5001ZM9.40335 14.9952C10.1475 14.5649 10.3969 13.6146 9.97025 12.8747L8.23764 13.8737C8.11605 13.6629 8.18568 13.389 8.40224 13.2638L9.40335 14.9952ZM9.96965 12.8737C9.53956 12.1299 8.58811 11.8795 7.84814 12.3074L8.84926 14.0388C8.63685 14.1616 8.36329 14.091 8.23825 13.8748L9.96965 12.8737Z"
          fill="#2400FE" mask="url(#path-2-inside-1_1235_3970)"/>
    <path d="M2.69854 12.0572L2.71837 12.0411L2.73645 12.023L13.3755 1.38469L13.3761 1.38407C13.3959 1.36425 13.4291 1.36425 13.4489 1.38407L13.4501 1.38528C13.4699 1.40503 13.4699 1.43825 13.4501 1.458L13.4494 1.45868L11.74 3.16886L11.5011 3.40784L11.6337 3.71862C11.8635 4.25699 11.9915 4.85053 11.9915 5.4742V5.47879V5.48338V5.48796V5.49255V5.49713V5.50172V5.5063V5.51088V5.51546V5.52004V5.52462V5.5292V5.53377V5.53835V5.54292V5.54749V5.55206V5.55663V5.5612V5.56577V5.57034V5.5749V5.57946V5.58403V5.58859V5.59315V5.59771V5.60227V5.60682V5.61138V5.61593V5.62049V5.62504V5.62959V5.63414V5.63869V5.64323V5.64778V5.65232V5.65687V5.66141V5.66595V5.67049V5.67502V5.67956V5.68409V5.68863V5.69316V5.69769V5.70222V5.70675V5.71127V5.7158V5.72032V5.72485V5.72937V5.73389V5.7384V5.74292V5.74744V5.75195V5.75646V5.76097V5.76548V5.76999V5.7745V5.779V5.7835V5.78801V5.79251V5.79701V5.8015V5.806V5.81049V5.81499V5.81948V5.82397V5.82845V5.83294V5.83743V5.84191V5.84639V5.85087V5.85535V5.85983V5.8643V5.86878V5.87325V5.87772V5.88219V5.88665V5.89112V5.89558V5.90004V5.90451V5.90896V5.91342V5.91788V5.92233V5.92678V5.93123V5.93568V5.94013V5.94457V5.94902V5.95346V5.9579V5.96233V5.96677V5.97121V5.97564V5.98007V5.9845V5.98892V5.99335V5.99777V6.0022V6.00662V6.01103V6.01545V6.01986V6.02428V6.02869V6.0331V6.0375V6.04191V6.04631V6.05071V6.05511V6.05951V6.0639V6.0683V6.07269V6.07708V6.08147V6.08585V6.09024V6.09462V6.099V6.10337V6.10775V6.11212V6.1165V6.12087V6.12523V6.1296V6.13396V6.13832V6.14268V6.14704V6.1514V6.15575V6.1601V6.16445V6.1688V6.17314V6.17749V6.18183V6.18617V6.1905V6.19484V6.19917V6.2035V6.20783V6.21215V6.21648V6.2208V6.22512V6.22944V6.23375V6.23806V6.24238V6.24668V6.25099V6.25529V6.2596V6.2639V6.26819V6.27249V6.27678V6.28107V6.28536V6.28965V6.29393V6.29821V6.30249V6.30677V6.31104V6.31531V6.31958V6.32385V6.32812V6.33238V6.33664V6.3409V6.34516V6.34941V6.35366V6.35791V6.36216V6.3664V6.37064V6.37488V6.37912V6.38335V6.38758V6.39181V6.39604V6.40026V6.40449V6.40871V6.41292V6.41714V6.42135V6.42556V6.42977V6.43397V6.43817V6.44237V6.44657V6.45077V6.45496V6.45915V6.46333V6.46752V6.4717V6.47588V6.48006V6.48423V6.4884V6.49257V6.49674V6.5009V6.50506V6.50922V6.51338V6.51753V6.52168V6.52583V6.52997V6.53412V6.53826V6.54239V6.54653V6.55066V6.55479V6.55892V6.56304V6.56716V6.57128V6.57539V6.57951V6.58362V6.58772V6.59183V6.59593V6.60003V6.60413V6.60822V6.61231V6.6164V6.62048V6.62457V6.62864V6.63272V6.6368V6.64087V6.64493V6.649V6.65306V6.65712V6.66118V6.66523V6.66928V6.67333V6.67738V6.68142V6.68546V6.68949V6.69353V6.69756V6.70158V6.70561V6.70963V6.71365V6.71766V6.72168V6.72569V6.72969V6.7337V6.7377V6.7417V6.74569V6.74968V6.75367V6.75766V6.76164V6.76562V6.76959V6.77357V6.77754V6.78151V6.78547V6.78943V6.79339V6.79734V6.80129V6.80524V6.80919V6.81313V6.81707V6.82101V6.82494V6.82887V6.8328V6.83672V6.84064V6.84456V6.84847V6.85238V6.85629V6.86019V6.86409V6.86799V6.87189V6.87578V6.87966V6.88355V6.88743V6.89131V6.89518V6.89906V6.90292V6.90679V6.91065V6.91451V6.91837V6.92222V6.92607V6.92991V6.93375V6.93759V6.94143V6.94526V6.94909V6.95291V6.95673V6.96055V6.96437V6.96818V6.97199V6.97579V6.97959V6.98339V6.98718V6.99098V6.99476V6.99855V7.00233V7.0061V7.00988V7.01365V7.01742V7.02118V7.02494V7.02869V7.03245V7.0362V7.03994V7.04368V7.04742V7.05116V7.05489V7.05862V7.06234V7.06606V7.06978V7.07349V7.0772V7.08091V7.08461V7.08831V7.092V7.0957V7.09938V7.10307V7.10675V7.11043V7.1141V7.11777V7.12144V7.1251V7.12876V7.13241V7.13607V7.13971V7.14336V7.147V7.15063V7.15427V7.1579V7.16152V7.16514V7.16876V7.17237V7.17598V7.17959V7.18319V7.18679V7.19039V7.19398V7.19757V7.20115V7.20473V7.2083V7.21188V7.21545V7.21901V7.22257V7.22613V7.22968V7.23323V7.23677V7.24031V7.24385V7.24738V7.25091V7.25444V7.25796V7.26148V7.26499V7.2685V7.27201V7.27551V7.27901V7.2825V7.28599V7.28947V7.29296V7.29643V7.29991V7.30338V7.30684V7.3103V7.31376V7.31721V7.32066V7.32411V7.32755V7.33099V7.33442V7.33785V7.34128V7.3447V7.34811V7.35152V7.35493V7.35834V7.36174V7.36513V7.36853V7.37191V7.3753V7.37868V7.38205V7.38542V7.38879V7.39215V7.39551V7.39886V7.40222V7.40556V7.4089V7.41224V7.41557V7.4189V7.42223V7.42555V7.42886V7.43217V7.43548V7.43878V7.44208V7.44538V7.44867V7.45195V7.45524V7.45851V7.46179V7.46505V7.46832V7.47158V7.47483V7.47808V7.48133V7.48457V7.48781V7.49105V7.49427V7.4975V7.50072V7.50394V7.50715V7.51035V7.51356V7.51675V7.51995V7.52314V7.52632V7.5295V7.53268V7.53585C11.9915 8.07954 12.2386 8.59355 12.6626 8.93303C12.8299 9.06731 13.0084 9.20992 13.1734 9.34167C13.2298 9.38673 13.2846 9.43053 13.3369 9.47229C13.6507 9.72377 13.8335 10.104 13.8335 10.5067C13.8335 10.9441 13.6595 11.3645 13.35 11.6747C13.0398 11.9842 12.6194 12.1583 12.182 12.1583H2.95764H2.75064L2.60422 12.3046L1.66034 13.2477L1.6596 13.2485C1.63985 13.2683 1.60663 13.2683 1.58688 13.2485L1.58567 13.2473C1.56585 13.2275 1.56585 13.1943 1.58567 13.1745L1.58639 13.1738L2.65038 12.1091L2.66839 12.0911L2.68448 12.0713C2.68874 12.0661 2.6933 12.0615 2.69854 12.0572ZM11.7106 4.24469L11.4736 3.43517L10.8772 4.03161L3.70933 11.1995L2.85577 12.053H4.06288H12.182C12.5927 12.053 12.9858 11.8896 13.2753 11.6001C13.5649 11.3105 13.7283 10.9174 13.7283 10.5067C13.7283 10.1356 13.5595 9.78643 13.2722 9.5551L13.2699 9.55329C13.0652 9.39034 12.8219 9.19557 12.5981 9.01599L12.5973 9.01529C12.1481 8.6564 11.8862 8.11202 11.8862 7.53585V7.53268V7.5295V7.52632V7.52314V7.51995V7.51675V7.51356V7.51035V7.50715V7.50394V7.50072V7.4975V7.49427V7.49105V7.48781V7.48457V7.48133V7.47808V7.47483V7.47158V7.46832V7.46505V7.46179V7.45851V7.45524V7.45195V7.44867V7.44538V7.44208V7.43878V7.43548V7.43217V7.42886V7.42555V7.42223V7.4189V7.41557V7.41224V7.4089V7.40556V7.40222V7.39886V7.39551V7.39215V7.38879V7.38542V7.38205V7.37868V7.3753V7.37191V7.36853V7.36513V7.36174V7.35834V7.35493V7.35152V7.34811V7.3447V7.34128V7.33785V7.33442V7.33099V7.32755V7.32411V7.32066V7.31721V7.31376V7.3103V7.30684V7.30338V7.29991V7.29643V7.29296V7.28947V7.28599V7.2825V7.27901V7.27551V7.27201V7.2685V7.26499V7.26148V7.25796V7.25444V7.25091V7.24738V7.24385V7.24031V7.23677V7.23323V7.22968V7.22613V7.22257V7.21901V7.21545V7.21188V7.2083V7.20473V7.20115V7.19757V7.19398V7.19039V7.18679V7.18319V7.17959V7.17598V7.17237V7.16876V7.16514V7.16152V7.1579V7.15427V7.15063V7.147V7.14336V7.13971V7.13607V7.13241V7.12876V7.1251V7.12144V7.11777V7.1141V7.11043V7.10675V7.10307V7.09938V7.0957V7.092V7.08831V7.08461V7.08091V7.0772V7.07349V7.06978V7.06606V7.06234V7.05862V7.05489V7.05116V7.04742V7.04368V7.03994V7.0362V7.03245V7.02869V7.02494V7.02118V7.01742V7.01365V7.00988V7.0061V7.00233V6.99855V6.99476V6.99098V6.98718V6.98339V6.97959V6.97579V6.97199V6.96818V6.96437V6.96055V6.95673V6.95291V6.94909V6.94526V6.94143V6.93759V6.93375V6.92991V6.92607V6.92222V6.91837V6.91451V6.91065V6.90679V6.90292V6.89906V6.89518V6.89131V6.88743V6.88355V6.87966V6.87578V6.87189V6.86799V6.86409V6.86019V6.85629V6.85238V6.84847V6.84456V6.84064V6.83672V6.8328V6.82887V6.82494V6.82101V6.81707V6.81313V6.80919V6.80524V6.80129V6.79734V6.79339V6.78943V6.78547V6.78151V6.77754V6.77357V6.76959V6.76562V6.76164V6.75766V6.75367V6.74968V6.74569V6.7417V6.7377V6.7337V6.72969V6.72569V6.72168V6.71766V6.71365V6.70963V6.70561V6.70158V6.69756V6.69353V6.68949V6.68546V6.68142V6.67738V6.67333V6.66928V6.66523V6.66118V6.65712V6.65306V6.649V6.64493V6.64087V6.6368V6.63272V6.62864V6.62457V6.62048V6.6164V6.61231V6.60822V6.60413V6.60003V6.59593V6.59183V6.58772V6.58362V6.57951V6.57539V6.57128V6.56716V6.56304V6.55892V6.55479V6.55066V6.54653V6.54239V6.53826V6.53412V6.52997V6.52583V6.52168V6.51753V6.51338V6.50922V6.50506V6.5009V6.49674V6.49257V6.4884V6.48423V6.48006V6.47588V6.4717V6.46752V6.46333V6.45915V6.45496V6.45077V6.44657V6.44237V6.43817V6.43397V6.42977V6.42556V6.42135V6.41714V6.41292V6.40871V6.40449V6.40026V6.39604V6.39181V6.38758V6.38335V6.37912V6.37488V6.37064V6.3664V6.36216V6.35791V6.35366V6.34941V6.34516V6.3409V6.33664V6.33238V6.32812V6.32385V6.31958V6.31531V6.31104V6.30677V6.30249V6.29821V6.29393V6.28965V6.28536V6.28107V6.27678V6.27249V6.26819V6.2639V6.2596V6.25529V6.25099V6.24668V6.24238V6.23806V6.23375V6.22944V6.22512V6.2208V6.21648V6.21215V6.20783V6.2035V6.19917V6.19484V6.1905V6.18617V6.18183V6.17749V6.17314V6.1688V6.16445V6.1601V6.15575V6.1514V6.14704V6.14268V6.13832V6.13396V6.1296V6.12523V6.12087V6.1165V6.11212V6.10775V6.10337V6.099V6.09462V6.09024V6.08585V6.08147V6.07708V6.07269V6.0683V6.0639V6.05951V6.05511V6.05071V6.04631V6.04191V6.0375V6.0331V6.02869V6.02428V6.01986V6.01545V6.01103V6.00662V6.0022V5.99777V5.99335V5.98892V5.9845V5.98007V5.97564V5.97121V5.96677V5.96233V5.9579V5.95346V5.94902V5.94457V5.94013V5.93568V5.93123V5.92678V5.92233V5.91788V5.91342V5.90896V5.90451V5.90004V5.89558V5.89112V5.88665V5.88219V5.87772V5.87325V5.86878V5.8643V5.85983V5.85535V5.85087V5.84639V5.84191V5.83743V5.83294V5.82845V5.82397V5.81948V5.81499V5.81049V5.806V5.8015V5.79701V5.79251V5.78801V5.7835V5.779V5.7745V5.76999V5.76548V5.76097V5.75646V5.75195V5.74744V5.74292V5.7384V5.73389V5.72937V5.72485V5.72032V5.7158V5.71127V5.70675V5.70222V5.69769V5.69316V5.68863V5.68409V5.67956V5.67502V5.67049V5.66595V5.66141V5.65687V5.65232V5.64778V5.64323V5.63869V5.63414V5.62959V5.62504V5.62049V5.61593V5.61138V5.60682V5.60227V5.59771V5.59315V5.58859V5.58403V5.57946V5.5749V5.57034V5.56577V5.5612V5.55663V5.55206V5.54749V5.54292V5.53835V5.53377V5.5292V5.52462V5.52004V5.51546V5.51088V5.5063V5.50172V5.49713V5.49255V5.48796V5.48338V5.47879V5.4742C11.8862 5.04804 11.8247 4.63456 11.7106 4.24469Z"
          fill="#2400FE" stroke="#2400FE"/>
</svg>
