<svg width="17" height="18" viewBox="0 0 17 18" fill="none" xmlns="http://www.w3.org/2000/svg">
    <path fill-rule="evenodd" clip-rule="evenodd" d="M4.00906 8.50894C4.28026 8.23774 4.71996 8.23774 4.99115 8.50894L7.76893 11.2867C8.04013 11.5579 8.04013 11.9976 7.76893 12.2688C7.49774 12.54 7.05804 12.54 6.78684 12.2688L4.00906 9.49103C3.73786 9.21983 3.73786 8.78014 4.00906 8.50894Z" fill="currentColor"/>
    <path fill-rule="evenodd" clip-rule="evenodd" d="M13.3245 5.73111C13.5957 6.00231 13.5957 6.442 13.3245 6.7132L7.76899 12.2688C7.49779 12.54 7.05809 12.54 6.78689 12.2688C6.5157 11.9976 6.5157 11.5579 6.78689 11.2867L12.3425 5.73111C12.6136 5.45991 13.0533 5.45991 13.3245 5.73111Z" fill="currentColor"/>
</svg>
