<svg width="24" height="25" viewBox="0 0 24 25" fill="none" xmlns="http://www.w3.org/2000/svg">
    <path fill-rule="evenodd" clip-rule="evenodd" d="M12 6.75C9.81051 6.75 7.94727 8.15792 7.27116 10.1208C7.14805 10.4782 6.83392 10.7356 6.45928 10.7861C4.50624 11.0494 3 12.7246 3 14.75C3 16.9591 4.79086 18.75 7 18.75C7.55229 18.75 8 19.1977 8 19.75C8 20.3023 7.55229 20.75 7 20.75C3.68629 20.75 1 18.0637 1 14.75C1 11.9186 2.96041 9.54651 5.59824 8.91485C6.68595 6.46241 9.14187 4.75 12 4.75C15.5571 4.75 18.4944 7.40314 18.9412 10.8384C21.2527 11.2787 23 13.3103 23 15.75C23 18.5114 20.7614 20.75 18 20.75C17.4477 20.75 17 20.3023 17 19.75C17 19.1977 17.4477 18.75 18 18.75C19.6569 18.75 21 17.4069 21 15.75C21 14.0931 19.6569 12.75 18 12.75C17.4477 12.75 17 12.3023 17 11.75C17 8.98858 14.7614 6.75 12 6.75Z" fill="currentColor"/>
    <path fill-rule="evenodd" clip-rule="evenodd" d="M12 12.75C11.4477 12.75 11 13.1977 11 13.75V19.75C11 20.3023 11.4477 20.75 12 20.75C12.5523 20.75 13 20.3023 13 19.75V13.75C13 13.1977 12.5523 12.75 12 12.75Z" fill="currentColor"/>
    <path fill-rule="evenodd" clip-rule="evenodd" d="M9.29289 17.0429C8.90237 17.4334 8.90237 18.0666 9.29289 18.4571L11.2929 20.4571C11.6834 20.8476 12.3166 20.8476 12.7071 20.4571C13.0976 20.0666 13.0976 19.4334 12.7071 19.0429L10.7071 17.0429C10.3166 16.6524 9.68342 16.6524 9.29289 17.0429Z" fill="currentColor"/>
    <path fill-rule="evenodd" clip-rule="evenodd" d="M11.2929 20.4571C11.6834 20.8476 12.3166 20.8476 12.7071 20.4571L14.7071 18.4571C15.0976 18.0666 15.0976 17.4334 14.7071 17.0429C14.3166 16.6524 13.6834 16.6524 13.2929 17.0429L11.2929 19.0429C10.9024 19.4334 10.9024 20.0666 11.2929 20.4571Z" fill="currentColor"/>
</svg>
