<svg width="35" height="41" viewBox="0 0 35 41" fill="none" xmlns="http://www.w3.org/2000/svg">
    <path d="M0.333008 3.75C0.333008 2.95435 0.649078 2.19129 1.21169 1.62868C1.7743 1.06607 2.53736 0.75 3.33301 0.75H23.666L33.666 10.75V37.75C33.666 38.5456 33.3499 39.3087 32.7873 39.8713C32.2247 40.4339 31.4616 40.75 30.666 40.75H3.33301C2.53736 40.75 1.7743 40.4339 1.21169 39.8713C0.649078 39.3087 0.333008 38.5456 0.333008 37.75V3.75Z" fill="#F5F5F5"/>
    <path d="M0.333008 28.75H33.666V37.75C33.666 38.5456 33.3499 39.3087 32.7873 39.8713C32.2247 40.4339 31.4616 40.75 30.666 40.75H3.33301C2.53736 40.75 1.7743 40.4339 1.21169 39.8713C0.649078 39.3087 0.333008 38.5456 0.333008 37.75V28.75Z" fill="#D93831"/>
    <path d="M26.1978 10.7401C25.54 10.7401 24.9092 10.4788 24.4441 10.0137C23.979 9.54864 23.7178 8.91784 23.7178 8.2601V0.808105L33.6638 10.7401H26.1978Z" fill="#DBDBDB"/>
    <path d="M14.1216 36.2418C13.9909 36.2453 13.8615 36.2158 13.7453 36.1558C13.6291 36.0959 13.53 36.0075 13.457 35.8991C13.3902 35.7867 13.3417 35.6643 13.3133 35.5367C13.2569 35.2582 13.2569 34.9714 13.3133 34.6929C13.3372 34.565 13.3833 34.4424 13.4496 34.3305C13.519 34.2177 13.6171 34.1253 13.7339 34.0627C13.8506 34.0001 13.9818 33.9695 14.1142 33.9741C14.2459 33.9732 14.3757 34.0061 14.491 34.0698C14.6063 34.1335 14.7033 34.2259 14.7727 34.3379C14.8433 34.4484 14.892 34.5714 14.9164 34.7002C14.9483 34.8366 14.9655 34.9765 14.9655 35.1178C14.9655 35.2603 14.9508 35.3992 14.9237 35.5356C14.8996 35.6649 14.8508 35.7882 14.78 35.8991C14.7096 36.0087 14.6119 36.0981 14.4964 36.1584C14.381 36.2187 14.2518 36.248 14.1216 36.2431V36.2418ZM12.333 33.3355V38.1201H13.3059V36.4409H13.3194C13.4386 36.6154 13.5897 36.748 13.7727 36.8389C13.9594 36.9249 14.1621 36.969 14.382 36.969C14.6066 36.9767 14.8298 36.9303 15.0326 36.8337C15.2355 36.737 15.4122 36.5931 15.5478 36.4139C15.6805 36.2444 15.7787 36.0503 15.8426 35.8316C15.9688 35.3717 15.9688 34.8863 15.8426 34.4263C15.7848 34.2056 15.6847 33.9983 15.5478 33.8158C15.4137 33.6412 15.2425 33.4985 15.0466 33.3981C14.8234 33.2878 14.5768 33.2333 14.328 33.2396C14.1068 33.2396 13.9066 33.2839 13.7236 33.3699C13.5353 33.4619 13.3781 33.6071 13.2715 33.7875H13.258V33.3355H12.333ZM19.039 35.097C19.039 35.2444 19.0255 35.3857 18.9972 35.5221C18.9727 35.6525 18.9266 35.7778 18.8608 35.893C18.7926 36.005 18.6954 36.0965 18.5795 36.1579C18.4637 36.2193 18.3334 36.2482 18.2024 36.2418C18.066 36.2455 17.931 36.2125 17.8118 36.1461C17.7064 36.0776 17.6154 35.9891 17.544 35.8857C17.4739 35.7716 17.4233 35.6466 17.3941 35.5159C17.3619 35.3811 17.3455 35.2429 17.345 35.1043C17.345 34.9581 17.3597 34.8194 17.3867 34.6867C17.4149 34.5586 17.4634 34.4358 17.5305 34.323C17.5983 34.2183 17.6901 34.1312 17.7983 34.0688C17.922 34.0014 18.0616 33.9683 18.2024 33.973C18.3621 33.973 18.4948 34.005 18.6004 34.0688C18.8083 34.212 18.9514 34.4313 18.9984 34.6793C19.0255 34.8119 19.039 34.9508 19.039 35.097ZM19.0513 36.4274V36.8794H19.9775V31.9854H19.0046V33.7679H18.9911C18.8824 33.5953 18.7245 33.4591 18.5378 33.3771C18.3524 33.2861 18.1485 33.239 17.942 33.2396C17.7153 33.2358 17.4908 33.2847 17.2862 33.3823C17.0816 33.4799 16.9024 33.6237 16.7627 33.8023C16.6304 33.9799 16.5306 34.1795 16.4679 34.3919C16.3418 34.8494 16.3418 35.3324 16.4679 35.7899C16.5367 36.0183 16.6349 36.2223 16.7627 36.4004C16.8954 36.5736 17.0624 36.7136 17.2627 36.8181C17.4641 36.9188 17.6975 36.969 17.9629 36.969C18.1963 36.969 18.4039 36.9274 18.5869 36.8463C18.7772 36.7566 18.935 36.6103 19.039 36.4274H19.0513ZM20.9258 33.9877V36.8794H21.8987V33.9865H22.5707V33.3355H21.8987V33.1242C21.8987 32.9768 21.927 32.8748 21.981 32.8146C22.0412 32.7507 22.1371 32.7188 22.2697 32.7188C22.3926 32.7188 22.5117 32.7262 22.626 32.7397V32.0125L22.3729 32.0002C22.286 31.9907 22.1987 31.9858 22.1113 31.9854C21.7145 31.9854 21.4172 32.0861 21.2207 32.2875C21.1222 32.3902 21.0454 32.5117 20.9947 32.6447C20.9441 32.7776 20.9207 32.9193 20.9258 33.0614V33.3355H20.3436V33.9865H20.9258V33.9877Z" fill="white"/>
    <path fill-rule="evenodd" clip-rule="evenodd" d="M18.723 9.65592C18.548 9.02292 18.12 8.70792 17.759 8.75392C17.323 8.81092 16.859 9.06992 16.673 9.47892C16.187 10.5709 17.101 13.6429 17.361 14.5169L17.406 14.6689C16.348 17.8629 12.727 24.1759 10.953 24.6029C10.916 24.1859 11.139 22.9789 13.479 21.4739C13.599 21.3439 13.739 21.1869 13.804 21.0839C11.826 22.0499 9.26408 23.6009 10.804 24.7609C10.889 24.8269 11.018 24.8809 11.167 24.9369C12.347 25.3739 13.999 23.9449 15.66 20.7039C17.49 20.0999 18.966 19.6459 21.055 19.3299C23.338 20.8799 24.871 21.1959 25.911 20.7969C26.199 20.6849 26.653 20.3229 26.783 19.8499C26.848 19.6269 26.941 19.2649 26.765 18.9769C26.175 18.0159 23.785 18.3449 22.365 18.5399C22.112 18.5749 21.89 18.6059 21.714 18.6239C19.885 17.5199 18.622 15.5509 18.111 14.1299C18.19 13.8279 18.269 13.5389 18.345 13.2619C18.73 11.8619 19.034 10.7559 18.725 9.65592H18.723ZM26.783 19.8499C25.938 20.8899 23.961 20.1659 22.383 19.1719C23.84 19.0139 25.343 18.9219 25.994 19.1259C26.821 19.3859 26.792 19.7939 26.784 19.8499H26.783ZM17.934 13.4899C17.629 12.4039 17.201 9.98992 17.888 9.20992C19.034 9.86592 18.599 11.2879 18.158 12.7329C18.081 12.9859 18.004 13.2389 17.934 13.4899ZM15.772 20.3329C17.489 19.6549 18.687 19.1989 20.451 18.8749C19.151 17.7049 18.361 16.4329 17.711 15.1329C17.248 16.8049 16.281 19.3389 15.771 20.3329H15.772Z" fill="#CFCFCF"/>
</svg>
